<svg xmlns="http://www.w3.org/2000/svg" xmlns:xlink="http://www.w3.org/1999/xlink" width="27" height="27" fill="#30475e" viewBox="0 0 27 27">
  <defs>
    <path id="a" d="M22.899 9.427a11.385 11.385 0 0 0-3.178-6.042 11.252 11.252 0 0 0-6.01-3.178c-.325-.058-.661-.1-.986-.147q-.222-.029-.443-.061h-1.453l-.032.008a1.278 1.278 0 0 1-.215.038 10.924 10.924 0 0 0-3.031.666 11.416 11.416 0 0 0-7.437 12.29 11.279 11.279 0 0 0 7.717 9.476 1.169 1.169 0 0 1 .529.4c.581.843 1.164 1.7 1.728 2.536l.765 1.127a.89.89 0 0 0 .7.456.888.888 0 0 0 .7-.456l.8-1.181c.552-.814 1.124-1.656 1.691-2.481a1.072 1.072 0 0 1 .514-.4 11.552 11.552 0 0 0 7.641-13.051Zm-8.484 11.759a1.134 1.134 0 0 0-.659.487c-.447.672-.893 1.327-1.365 2.021l-.557.817-.276.408-.284-.4c-.035-.05-.067-.1-.1-.138-.062-.088-.118-.167-.172-.247l-.446-.654c-.393-.577-.8-1.173-1.19-1.768a1.294 1.294 0 0 0-.749-.545 9.8 9.8 0 0 1-6.581-6.341 9.9 9.9 0 0 1 .627-8.02A10.143 10.143 0 0 1 9.07 1.793a9.949 9.949 0 0 1 2.47-.313 10.148 10.148 0 0 1 9.914 8.316 10.01 10.01 0 0 1-7.044 11.4Z"/>
  </defs>
  <use xlink:href="#a"/>
  <use xlink:href="#a"/>
  <path d="M12.399 15.953a.318.318 0 0 1-.178.324 1.358 1.358 0 0 1-.679.2 1.359 1.359 0 0 1-.638-.172.348.348 0 0 1-.2-.359c.006-1.876.006-3.749 0-5.568a.343.343 0 0 1 .239-.376 1.643 1.643 0 0 1 .607-.122 1.5 1.5 0 0 1 .642.148.31.31 0 0 1 .208.33 105.04 105.04 0 0 0 0 2.024v1.562a96.03 96.03 0 0 0-.001 2.009Z"/>
  <path d="M12.399 15.953a.318.318 0 0 1-.178.324 1.358 1.358 0 0 1-.679.2 1.359 1.359 0 0 1-.638-.172.348.348 0 0 1-.2-.359c.006-1.876.006-3.749 0-5.568a.343.343 0 0 1 .239-.376 1.643 1.643 0 0 1 .607-.122 1.5 1.5 0 0 1 .642.148.31.31 0 0 1 .208.33 105.04 105.04 0 0 0 0 2.024v1.562a96.03 96.03 0 0 0-.001 2.009Zm.041-8.864a.889.889 0 0 1-.89.705h-.01a.879.879 0 0 1-.9-.708.687.687 0 0 1 .2-.512.932.932 0 0 1 .679-.287.676.676 0 0 1 .085 0 1.235 1.235 0 0 1 .23.038.782.782 0 0 1 .606.764Z"/>
  <path d="M12.44 7.089a.889.889 0 0 1-.89.705h-.01a.879.879 0 0 1-.9-.708.687.687 0 0 1 .2-.512.932.932 0 0 1 .679-.287.676.676 0 0 1 .085 0 1.235 1.235 0 0 1 .23.038.782.782 0 0 1 .606.764Z"/>
</svg>
