<svg width="22" height="22" viewBox="0 0 22 22" fill="none" xmlns="http://www.w3.org/2000/svg">
<g clip-path="url(#clip0_4920_3427)">
<path fill-rule="evenodd" clip-rule="evenodd" d="M10.9799 11.62C10.8999 11.62 10.8199 11.6 10.7499 11.57C10.5299 11.48 10.3799 11.26 10.3799 11.01V2.09C10.3799 0.94 11.3199 0 12.4699 0H19.9099C21.0599 0 21.9999 0.94 21.9999 2.09V6.55C21.9999 7.1 21.7799 7.64 21.3899 8.03C20.9999 8.42 20.4599 8.64 19.9099 8.64H14.2699L11.4099 11.44C11.2999 11.55 11.1399 11.62 10.9799 11.62ZM12.4699 1.21C11.9799 1.21 11.5799 1.61 11.5799 2.1V9.47L13.5299 7.62C13.6399 7.51 13.7999 7.44 13.9599 7.44H19.9099C20.1399 7.44 20.3699 7.34 20.5399 7.18C20.6999 7.02 20.7999 6.79 20.7999 6.55V2.09C20.7999 1.6 20.3999 1.2 19.9199 1.2H12.4799L12.4699 1.21Z" fill="#45536D"/>
<path fill-rule="evenodd" clip-rule="evenodd" d="M17.51 21.97C16.86 21.97 16.23 21.79 15.67 21.46L12.7 19.68C8.44001 17.12 4.84001 13.52 2.29001 9.27L0.510009 6.3C-0.269991 5 -0.139991 3.34 0.830009 2.17L2.01001 0.75C2.41001 0.27 2.99001 0 3.62001 0C4.29001 0.01 4.87001 0.3 5.27001 0.81L8.54001 5.01C9.19001 5.84 9.11001 7.03 8.37001 7.77L7.39001 8.75L7.64001 9.3C8.72001 11.47 10.52 13.26 12.69 14.35L13.2 14.6L14.22 13.62C14.61 13.23 15.14 13.01 15.7 13.01C16.17 13.01 16.61 13.16 16.98 13.45L21.18 16.71C21.68 17.1 21.98 17.69 21.99 18.32C21.99 18.96 21.73 19.55 21.24 19.96L19.82 21.14C19.18 21.67 18.37 21.97 17.53 21.97H17.51ZM3.62001 1.21C3.36001 1.21 3.11001 1.33 2.94001 1.53L1.76001 2.95C1.11001 3.72 1.03001 4.82 1.55001 5.69L3.33001 8.66C5.78001 12.75 9.24001 16.21 13.33 18.66L16.3 20.44C16.67 20.66 17.09 20.78 17.52 20.78C18.07 20.78 18.61 20.58 19.04 20.23L20.46 19.05C20.67 18.88 20.78 18.62 20.78 18.36C20.78 18.09 20.65 17.84 20.44 17.68L16.24 14.41C16.09 14.29 15.89 14.22 15.7 14.22C15.46 14.22 15.24 14.31 15.07 14.48L13.77 15.78C13.66 15.89 13.51 15.96 13.34 15.96C13.25 15.96 13.15 15.94 13.07 15.9L12.15 15.44C9.75001 14.24 7.76001 12.26 6.56001 9.86L6.10001 8.94C5.98001 8.71 6.03001 8.43 6.21001 8.25L7.51001 6.95C7.83001 6.64 7.86001 6.13 7.58001 5.78L4.32001 1.55C4.16001 1.34 3.91001 1.21 3.64001 1.21H3.63001H3.62001Z" fill="#45536D"/>
</g>
<defs>
<clipPath id="clip0_4920_3427">
<rect width="22" height="22" fill="white"/>
</clipPath>
</defs>
</svg>
