<svg xmlns="http://www.w3.org/2000/svg" fill="#30475e" viewBox="0 0 27 27" width="27" height="27">
  <path d="M27.001 22.053c-.045.159-.084.32-.134.477a2.776 2.776 0 0 1-2.632 1.957c-2.073.012-4.147 0-6.222 0h-15.1A2.793 2.793 0 0 1 .09 22.329a3.175 3.175 0 0 1-.081-.734q-.008-4.273 0-8.546a2.809 2.809 0 0 1 .817-2.08 2.809 2.809 0 0 1 2.077-.825h21.218a2.8 2.8 0 0 1 2.838 2.339.389.389 0 0 0 .045.09Zm-14.312.851V11.736H2.971a1.248 1.248 0 0 0-1.386 1.387v8.386a1.244 1.244 0 0 0 1.4 1.4h9.7Zm1.616 0h9.768a1.231 1.231 0 0 0 .99-.354 1.231 1.231 0 0 0 .356-.989v-8.438a1.247 1.247 0 0 0-1.387-1.386h-9.728Zm8.461-18.18c-.277-.271-.558-.538-.831-.813a.806.806 0 0 1-.282-.577.806.806 0 0 1 .23-.6.8.8 0 0 1 .6-.228.8.8 0 0 1 .574.287q1.086 1.081 2.166 2.17a.8.8 0 0 1 .3.628.8.8 0 0 1-.3.625q-1.071 1.079-2.147 2.152a.809.809 0 0 1-.584.294.809.809 0 0 1-.61-.233.808.808 0 0 1-.221-.6.808.808 0 0 1 .288-.574 8.927 8.927 0 0 0 .8-.875h-10.81a1.658 1.658 0 0 1-.393-.027.8.8 0 0 1-.594-.807.812.812 0 0 1 .73-.749 2.782 2.782 0 0 1 .29 0h10.766ZM3.072 6.375c-.264 0-.527.006-.79 0a.8.8 0 0 1-.792-.787.8.8 0 0 1 .763-.792 26.91 26.91 0 0 1 1.632 0 .78.78 0 0 1 .554.24.78.78 0 0 1 .217.563.78.78 0 0 1-.234.556.78.78 0 0 1-.56.223c-.263.005-.527-.003-.79-.003Zm4.755.005c-.272 0-.544.007-.816 0a.8.8 0 0 1-.779-.774.792.792 0 0 1 .749-.8 23.09 23.09 0 0 1 1.685 0 .772.772 0 0 1 .536.254.772.772 0 0 1 .2.559.779.779 0 0 1-.781.765c-.267-.004-.53-.004-.794-.004Z"/>
  <path d="M9.521 17.367a2.382 2.382 0 0 1-2.392 2.35 2.383 2.383 0 0 1-1.677-.72 2.383 2.383 0 0 1-.676-1.7 2.366 2.366 0 0 1 .72-1.676 2.366 2.366 0 0 1 1.7-.666 2.366 2.366 0 0 1 1.662.721 2.366 2.366 0 0 1 .665 1.686Zm-2.377-.819a.784.784 0 0 0-.557.233.784.784 0 0 0-.227.56.8.8 0 0 0 .792.789.8.8 0 0 0 .784-.8.784.784 0 0 0-.233-.557.784.784 0 0 0-.56-.226Zm.796-3.219c0 .661-.444 1.066-1 .911a.954.954 0 0 1-.549-1.26.792.792 0 0 1 .385-.478.792.792 0 0 1 .611-.059.824.824 0 0 1 .553.886ZM5.225 14.62a.8.8 0 0 1-.8.78 1.115 1.115 0 0 1-.984-1 .8.8 0 0 1 .8-.783 1.135 1.135 0 0 1 .984 1.006Zm4.648.781a.8.8 0 0 1-.8-.784 1.134 1.134 0 0 1 .988-1 .8.8 0 0 1 .8.787 1.115 1.115 0 0 1-.988 1Zm-4.646 4.673a1.12 1.12 0 0 1-1.007.98.8.8 0 0 1-.777-.8 1.13 1.13 0 0 1 1.007-.983.805.805 0 0 1 .777.806Zm5.634.196a.8.8 0 0 1-.8.783 1.115 1.115 0 0 1-.987-1 .8.8 0 0 1 .8-.786 1.135 1.135 0 0 1 .987 1ZM7.94 21.318a.808.808 0 0 1-.282.756.808.808 0 0 1-.8.135c-.361-.147-.525-.453-.507-.975a.811.811 0 0 1 .561-.8c.554-.175 1.026.234 1.028.884Zm-4.779-4.774c.627 0 1.011.392.915.936a.926.926 0 0 1-1.253.619.789.789 0 0 1-.5-.4.789.789 0 0 1-.043-.637.823.823 0 0 1 .881-.518Zm7.97 1.586c-.628 0-1.021-.424-.9-.973.1-.446.486-.662 1.1-.61a.792.792 0 0 1 .742.754c.024.489-.365.831-.942.829Zm12.672-.81a4 4 0 0 1-3.442 3.938 4 4 0 0 1-4.431-3.06.814.814 0 0 1 1-1.084 2.411 2.411 0 0 0 2.023-.689 2.411 2.411 0 0 0 .68-2.026.813.813 0 0 1 1.038-1.007 4 4 0 0 1 3.132 3.928Zm-5.926 1.369a2.363 2.363 0 0 0 2.438.965 2.415 2.415 0 0 0 1.878-2.012 2.3 2.3 0 0 0-.992-2.273 4.071 4.071 0 0 1-3.324 3.32Z"/>
</svg>
