<svg width="260" height="261" viewBox="0 0 260 261" fill="none" xmlns="http://www.w3.org/2000/svg">
<g clip-path="url(#clip0_4931_3472)">
<path d="M130 259.094C201.245 259.094 259 201.339 259 130.094C259 58.8495 201.245 1.09424 130 1.09424C58.7553 1.09424 1 58.8495 1 130.094C1 201.339 58.7553 259.094 130 259.094Z" fill="url(#paint0_linear_4931_3472)"/>
<path d="M131.579 71.2703L136.435 68.3509C138.798 69.5413 141.368 70.364 144.064 70.7484L146.375 75.915C146.456 76.0961 146.643 76.2056 146.841 76.1889L153.613 75.59C153.811 75.5724 153.975 75.4312 154.023 75.239L155.39 69.7465C157.977 68.8941 160.363 67.6331 162.48 66.0461L167.773 68.0676C167.959 68.1382 168.169 68.0834 168.297 67.9321L172.66 62.7237C172.788 62.5714 172.804 62.3551 172.702 62.1851L169.781 57.3334C170.972 54.972 171.795 52.4036 172.18 49.7089L177.35 47.3995C177.531 47.3187 177.641 47.1311 177.624 46.9334L177.025 40.1669C177.007 39.9691 176.866 39.8038 176.674 39.7564L171.177 38.3905C170.324 35.8054 169.062 33.4217 167.474 31.3064L169.497 26.0164C169.568 25.8306 169.513 25.6208 169.361 25.4936L164.149 21.133C163.997 21.0058 163.78 20.9891 163.61 21.0912L158.755 24.0106C156.392 22.8202 153.822 21.9975 151.126 21.6131L148.815 16.4465C148.734 16.2654 148.546 16.1559 148.348 16.1726L141.577 16.7724C141.379 16.7901 141.215 16.9312 141.166 17.1234L139.799 22.6159C137.212 23.4684 134.827 24.7294 132.71 26.3163L127.416 24.2948C127.23 24.2242 127.02 24.279 126.893 24.4304L122.529 29.6387C122.402 29.791 122.385 30.0074 122.488 30.1773L125.409 35.0291C124.218 37.3904 123.395 39.9589 123.01 42.6536L117.84 44.9629C117.658 45.0437 117.549 45.2313 117.566 45.4291L118.166 52.1956C118.183 52.3934 118.325 52.5586 118.517 52.606L124.013 53.9719C124.866 56.5561 126.128 58.9407 127.716 61.056L125.693 66.3461C125.623 66.5318 125.677 66.7416 125.829 66.8689L131.041 71.2294C131.194 71.3566 131.41 71.3734 131.58 71.2712L131.579 71.2703Z" fill="url(#paint1_linear_4931_3472)"/>
<path d="M145.89 52.4444C143.894 51.8993 142.19 50.4145 141.458 48.3196C140.278 44.9387 142.07 41.2291 145.453 40.0498C147.093 39.4787 148.855 39.579 150.418 40.333C151.981 41.087 153.157 42.4046 153.728 44.0417C154.3 45.6797 154.2 47.4412 153.445 49.0031C152.69 50.5649 151.372 51.7396 149.734 52.3106C148.448 52.7591 147.114 52.7777 145.89 52.4434V52.4444ZM149.052 40.8028C147.975 40.5085 146.835 40.5456 145.758 40.9208C142.856 41.932 141.319 45.1142 142.331 48.0141C143.343 50.9141 146.528 52.4499 149.43 51.4387C152.332 50.4275 153.869 47.2453 152.857 44.3453C152.366 42.9404 151.358 41.8103 150.017 41.1641C149.704 41.0127 149.381 40.892 149.052 40.8028Z" fill="white"/>
<path opacity="0.35" d="M119.179 70.4817C118.957 70.4213 118.751 70.2941 118.593 70.1037C118.189 69.6153 117.793 69.1102 117.417 68.6032C117.036 68.0915 117.143 67.3682 117.655 66.9874C118.167 66.6067 118.891 66.7135 119.272 67.2252C119.625 67.7006 119.996 68.1732 120.375 68.6319C120.781 69.1241 120.712 69.8512 120.219 70.2579C119.918 70.5067 119.528 70.5773 119.178 70.4817H119.179Z" fill="url(#paint2_linear_4931_3472)"/>
<path d="M152.784 11.289C152.226 11.1367 151.858 10.5861 151.948 10.0001C152.045 9.36964 152.635 8.93693 153.265 9.0335C153.887 9.12821 154.517 9.2415 155.141 9.36964C155.764 9.49778 156.169 10.1088 156.041 10.7337C155.911 11.3586 155.301 11.7607 154.675 11.6326C154.09 11.5119 153.497 11.406 152.915 11.3169C152.87 11.3104 152.826 11.3011 152.784 11.289H152.784Z" fill="white"/>
<path d="M178.271 28.1082C177.999 28.0339 177.754 27.8602 177.593 27.6012C177.283 27.0988 176.953 26.5955 176.613 26.1052C176.25 25.5806 176.382 24.8619 176.907 24.4988C177.431 24.1357 178.151 24.2667 178.515 24.7922C178.876 25.315 179.227 25.8517 179.559 26.3866C179.895 26.9289 179.726 27.6411 179.184 27.9763C178.9 28.1518 178.57 28.1899 178.271 28.1082Z" fill="white"/>
<path opacity="0.35" d="M146.181 83.7011C145.677 83.5637 145.315 83.0957 145.332 82.5515C145.351 81.9145 145.885 81.4131 146.522 81.4326C147.723 81.4697 148.942 81.4437 150.142 81.3564C150.778 81.31 151.333 81.7882 151.379 82.4243C151.426 83.0604 150.947 83.6138 150.311 83.6602C149.031 83.754 147.733 83.7809 146.451 83.7419C146.358 83.7392 146.267 83.7252 146.181 83.702V83.7011ZM155.922 82.675C155.531 82.5682 155.207 82.2571 155.104 81.8356C154.951 81.2162 155.33 80.5913 155.951 80.439C157.046 80.1707 158.144 79.8457 159.215 79.4724L159.422 79.3999C160.023 79.1864 160.685 79.4993 160.898 80.1001C161.112 80.7009 160.799 81.3611 160.198 81.5756L159.977 81.6536C158.837 82.051 157.668 82.3974 156.502 82.6824C156.304 82.7307 156.106 82.7252 155.923 82.675H155.922ZM165.039 79.1028C164.75 79.0239 164.491 78.8326 164.334 78.5503C164.023 77.9931 164.225 77.2893 164.783 76.9801C165.834 76.396 166.866 75.7506 167.85 75.0626C168.373 74.6967 169.093 74.823 169.459 75.3467C169.826 75.8695 169.698 76.5891 169.175 76.955C168.126 77.6886 167.026 78.3767 165.906 78.9988C165.631 79.1511 165.321 79.1799 165.04 79.1037L165.039 79.1028ZM172.87 73.2389C172.68 73.1869 172.501 73.0856 172.353 72.9361C171.905 72.4821 171.91 71.7513 172.364 71.3028C173.22 70.4596 174.042 69.5608 174.807 68.6331C175.213 68.141 175.941 68.0704 176.434 68.4762C176.927 68.882 176.997 69.61 176.591 70.1021C175.776 71.0911 174.9 72.0484 173.989 72.9473C173.685 73.2472 173.255 73.3438 172.871 73.2389H172.87ZM178.853 65.4936C178.759 65.4686 178.668 65.4305 178.58 65.3794C178.027 65.0609 177.838 64.3552 178.156 63.8027C178.757 62.7618 179.311 61.6772 179.803 60.5787C180.063 59.9965 180.749 59.7356 181.33 59.9965C181.912 60.2574 182.172 60.9399 181.912 61.5221C181.388 62.6921 180.798 63.8473 180.159 64.956C179.89 65.4212 179.348 65.6283 178.853 65.4936ZM182.566 56.4382C181.956 56.272 181.593 55.6452 181.752 55.0333C182.055 53.8707 182.302 52.6784 182.484 51.4899C182.58 50.8594 183.17 50.4266 183.8 50.5232C184.436 50.6207 184.864 51.2085 184.768 51.839C184.574 53.1065 184.312 54.3768 183.988 55.6164C183.827 56.233 183.196 56.6035 182.579 56.4429C182.574 56.4419 182.569 56.4401 182.566 56.4391V56.4382ZM183.735 46.7235C183.251 46.5916 182.893 46.1534 182.884 45.6278C182.866 44.4262 182.783 43.2116 182.64 42.0175C182.564 41.3842 183.016 40.8094 183.65 40.7333C184.284 40.6571 184.859 41.1094 184.935 41.7426C185.088 43.0157 185.176 44.3101 185.196 45.5916C185.206 46.2295 184.697 46.7541 184.059 46.7644C183.946 46.7662 183.838 46.7514 183.735 46.7235H183.735ZM182.259 37.0487C181.885 36.9466 181.571 36.6587 181.454 36.2594C181.289 35.6958 181.106 35.1266 180.91 34.5666C180.708 33.9891 180.489 33.4087 180.256 32.8414C180.016 32.2508 180.299 31.5766 180.89 31.3361C181.481 31.0956 182.156 31.3789 182.396 31.9694C182.643 32.5739 182.877 33.1924 183.091 33.8061C183.3 34.4014 183.494 35.0077 183.67 35.6085C183.851 36.2204 183.499 36.8621 182.887 37.0422C182.674 37.1044 182.457 37.1035 182.258 37.0487H182.259Z" fill="url(#paint3_linear_4931_3472)"/>
<path opacity="0.35" d="M138.329 82.5943C137.722 82.429 137.358 81.8069 137.514 81.1949C137.672 80.5765 138.3 80.2041 138.919 80.3611C139.492 80.5069 140.079 80.6406 140.663 80.7585C141.29 80.8876 141.693 81.493 141.568 82.1179C141.442 82.7438 140.833 83.1477 140.208 83.0224C139.585 82.897 138.96 82.7549 138.348 82.5989C138.342 82.5971 138.335 82.5952 138.329 82.5934V82.5943Z" fill="url(#paint4_linear_4931_3472)"/>
<path d="M145.426 62.8918C145.208 62.8324 145.061 62.6197 145.09 62.3895C145.093 62.3672 145.098 62.3458 145.103 62.3245C145.163 62.1062 145.375 61.9595 145.606 61.9883C146.724 62.1276 147.865 62.1471 148.999 62.0468C157.107 61.329 163.274 54.6322 163.525 46.6975C163.546 46.0642 163.527 45.4217 163.471 44.7745C162.696 36.0264 154.942 29.5403 146.187 30.3138C141.946 30.689 138.104 32.6928 135.371 35.9549C133.873 37.7424 132.807 39.7899 132.21 41.973C131.717 43.7753 131.544 45.6696 131.715 47.5852C131.969 50.462 132.997 53.2096 134.687 55.5329C134.773 55.6508 134.795 55.7957 134.759 55.9266C134.732 56.0241 134.673 56.1142 134.585 56.1782C134.379 56.3287 134.09 56.2822 133.939 56.0761C132.151 53.6182 131.064 50.7099 130.794 47.667C130.614 45.6399 130.796 43.6351 131.317 41.7287C131.948 39.4185 133.077 37.2521 134.661 35.3615C137.553 31.91 141.617 29.791 146.104 29.3936C155.367 28.5737 163.57 35.4377 164.391 44.6927C164.572 46.7375 164.378 48.7311 163.865 50.605C162.059 57.2117 156.296 62.3272 149.079 62.9661C147.976 63.0636 146.867 63.0534 145.777 62.9373C145.743 62.9336 145.711 62.9299 145.677 62.9262C145.615 62.9187 145.553 62.9113 145.49 62.9039C145.467 62.9011 145.445 62.8965 145.425 62.8909L145.426 62.8918Z" fill="white"/>
<path opacity="0.35" d="M0.297597 73.6553C0.0745781 73.4529 -0.0425067 73.1427 0.0141772 72.8242C0.100597 72.3414 0.193522 71.8585 0.292022 71.3775C0.39238 70.8872 0.8728 70.5706 1.36344 70.6709C1.85501 70.7712 2.17096 71.2503 2.0706 71.7415C1.97488 72.2086 1.88475 72.6757 1.80112 73.1437C1.71284 73.6367 1.24171 73.9655 0.748281 73.8772C0.573583 73.8457 0.419328 73.7667 0.297597 73.6562V73.6553Z" fill="url(#paint5_linear_4931_3472)"/>
<path opacity="0.35" d="M1.68232 67.7428C1.43421 67.5171 1.32085 67.1615 1.4212 66.8179C1.68976 65.8958 1.98433 64.9682 2.29748 64.0628C2.46103 63.5893 2.97769 63.3376 3.4516 63.502C3.92552 63.6663 4.17735 64.1817 4.01287 64.6553C3.70901 65.5328 3.42373 66.4307 3.16354 67.3249C3.02322 67.8059 2.51957 68.0826 2.03822 67.9424C1.90069 67.9025 1.77989 67.8328 1.68139 67.7428H1.68232ZM4.23031 60.7228C3.94968 60.4683 3.84932 60.0542 4.01008 59.6874C4.39572 58.809 4.8083 57.9278 5.23668 57.0688C5.4597 56.6203 6.00517 56.4383 6.454 56.6612C6.90189 56.884 7.08495 57.4291 6.86193 57.8776C6.44749 58.7096 6.04699 59.5639 5.67343 60.4154C5.47178 60.8741 4.93654 61.083 4.47749 60.8825C4.38457 60.8416 4.30186 60.7868 4.23031 60.7228ZM7.66294 54.089C7.34886 53.804 7.26987 53.3285 7.49661 52.9515C7.99283 52.126 8.51413 51.3052 9.04659 50.5103C9.32536 50.0943 9.88942 49.9829 10.3057 50.2615C10.722 50.541 10.8335 51.1037 10.5548 51.5197C10.039 52.2904 9.53351 53.0862 9.05217 53.8857C8.79384 54.3147 8.23629 54.454 7.80698 54.1958C7.75494 54.1643 7.70662 54.128 7.66294 54.089ZM11.9152 47.9465C11.5648 47.628 11.5165 47.0895 11.8148 46.7134C12.4105 45.9613 13.034 45.2138 13.6668 44.4913C13.9967 44.1143 14.571 44.0763 14.9473 44.4068C15.3311 44.7374 15.3627 45.3094 15.0319 45.6864C14.4186 46.3856 13.8155 47.1099 13.2375 47.8398C12.9262 48.2325 12.3556 48.2985 11.9626 47.9874C11.9458 47.9744 11.93 47.9605 11.9142 47.9465H11.9152ZM16.9257 42.4076C16.9117 42.3946 16.8978 42.3816 16.8848 42.3677C16.5354 42.0083 16.5437 41.4345 16.9034 41.0853C17.5919 40.4168 18.3084 39.7547 19.0323 39.1195C19.4086 38.789 19.9819 38.8243 20.3128 39.2022C20.6436 39.5783 20.6064 40.1512 20.2301 40.4818C19.5285 41.0983 18.8343 41.739 18.1671 42.3863C17.8215 42.7224 17.2769 42.727 16.9247 42.4076H16.9257ZM22.6182 37.5614C22.5755 37.5224 22.5364 37.4797 22.5002 37.4314C22.201 37.0293 22.2837 36.462 22.686 36.162C23.4564 35.5882 24.2528 35.0264 25.051 34.4906C25.4673 34.212 26.0304 34.3235 26.3101 34.7385C26.5889 35.1545 26.4783 35.7182 26.062 35.9968C25.2879 36.5158 24.5167 37.06 23.7695 37.6162C23.4155 37.8799 22.9323 37.8465 22.6173 37.5605L22.6182 37.5614ZM28.8916 33.497C28.8209 33.433 28.7596 33.3568 28.7103 33.2686C28.466 32.8313 28.6221 32.2788 29.0588 32.0345C29.8961 31.5665 30.7575 31.1125 31.6189 30.6844C32.0677 30.4615 32.6132 30.6454 32.8353 31.093C33.0583 31.5415 32.8752 32.0856 32.4264 32.3085C31.591 32.7235 30.7556 33.1637 29.9453 33.6168C29.5959 33.8128 29.1722 33.7515 28.8916 33.4961V33.497ZM35.636 30.2786C35.5375 30.1895 35.4576 30.0771 35.4046 29.9453C35.2179 29.48 35.4446 28.9526 35.9101 28.766C36.8013 28.4094 37.7138 28.0705 38.6217 27.7575C39.0956 27.5941 39.6113 27.8458 39.7758 28.3193C39.9393 28.7929 39.6875 29.3092 39.2136 29.4726C38.3327 29.7753 37.449 30.105 36.5848 30.4504C36.2512 30.5841 35.885 30.5052 35.636 30.2786ZM42.7382 27.9553C42.6119 27.8402 42.5161 27.6888 42.4706 27.5105C42.3461 27.0258 42.6379 26.5309 43.1229 26.4055C44.0513 26.1669 44.9991 25.9478 45.9404 25.7537C46.4311 25.6525 46.9115 25.9682 47.0128 26.4594C47.114 26.9506 46.7981 27.4298 46.3065 27.531C45.394 27.7185 44.475 27.9312 43.5755 28.1624C43.2679 28.2413 42.9566 28.1531 42.7373 27.9544L42.7382 27.9553ZM50.0793 26.5634C49.9241 26.4223 49.8172 26.2282 49.7893 26.0044C49.728 25.5076 50.0811 25.0545 50.5783 24.9932C51.5298 24.8753 52.4981 24.7796 53.4552 24.709C53.9551 24.6719 54.39 25.047 54.4272 25.5466C54.4644 26.0462 54.089 26.4808 53.589 26.5179C52.6616 26.5866 51.7231 26.6795 50.8004 26.7937C50.5272 26.8271 50.267 26.7361 50.0783 26.5643L50.0793 26.5634ZM57.5374 26.1279C57.3534 25.9608 57.2382 25.7193 57.24 25.451C57.2428 24.9505 57.6517 24.5465 58.1535 24.5493C59.1106 24.5549 60.0826 24.5855 61.0416 24.6385C61.5415 24.6663 61.9253 25.0944 61.8974 25.5949C61.8695 26.0954 61.4411 26.478 60.9403 26.4501C60.011 26.3981 59.0688 26.3693 58.1414 26.3638C57.9082 26.3619 57.6963 26.2728 57.5365 26.1279H57.5374ZM64.9871 26.659C64.7734 26.465 64.6554 26.1715 64.6981 25.8642C64.766 25.3683 65.2241 25.0201 65.7203 25.0888C66.6691 25.2188 67.6281 25.3748 68.5703 25.5513C69.0628 25.6441 69.3871 26.1177 69.2951 26.6098C69.2022 27.102 68.7283 27.426 68.2358 27.3341C67.3223 27.1623 66.3931 27.0119 65.4741 26.8856C65.2854 26.8596 65.1182 26.7779 64.9871 26.659ZM72.3003 28.1513C72.0559 27.9293 71.9416 27.5811 72.0355 27.2403C72.1674 26.7575 72.6664 26.4724 73.1506 26.6043C74.077 26.8578 75.01 27.1373 75.9216 27.4353C76.3983 27.5904 76.6575 28.103 76.5014 28.5793C76.3453 29.0557 75.8333 29.3148 75.3566 29.1588C74.4729 28.87 73.5697 28.5988 72.672 28.3537C72.5289 28.3147 72.4034 28.2432 72.3012 28.1503L72.3003 28.1513ZM79.3635 30.5823C79.0875 30.3315 78.9844 29.9239 79.1377 29.5608C79.331 29.0993 79.8634 28.8811 80.3253 29.0752C81.2108 29.4466 82.0992 29.844 82.9643 30.2573C83.4169 30.4727 83.6083 31.015 83.3918 31.4672C83.1753 31.9194 82.6335 32.1107 82.181 31.8943C81.3419 31.4932 80.4814 31.1078 79.6228 30.7485C79.5243 30.7076 79.4378 30.651 79.3626 30.5832L79.3635 30.5823ZM104.516 50.8715C104.466 50.826 104.421 50.775 104.382 50.7174C103.85 49.9523 103.292 49.1918 102.726 48.4563C102.42 48.0598 102.493 47.4897 102.89 47.1842C103.287 46.8787 103.857 46.952 104.163 47.3485C104.749 48.1072 105.323 48.8918 105.872 49.682C106.158 50.0934 106.056 50.6589 105.644 50.944C105.29 51.19 104.822 51.1492 104.516 50.8706V50.8715ZM86.0531 33.9047C85.7437 33.6233 85.661 33.1563 85.8794 32.7802C86.1303 32.3465 86.686 32.1989 87.1199 32.4496L87.4396 32.6363C88.1597 33.0597 88.8836 33.5054 89.588 33.9595C90.0099 34.2325 90.1297 34.7924 89.8575 35.214C89.5852 35.6346 89.0239 35.7553 88.602 35.4833C87.9191 35.0422 87.2175 34.6104 86.5178 34.199L86.2111 34.0198C86.1535 33.9864 86.1015 33.9483 86.0541 33.9056L86.0531 33.9047ZM99.8627 45.029C99.8413 45.0095 99.8208 44.989 99.8013 44.9677C99.175 44.2796 98.5236 43.598 97.8648 42.9415C97.5098 42.5878 97.5089 42.0139 97.862 41.6583C98.2151 41.3026 98.7922 41.3063 99.1453 41.6555C99.8255 42.3324 100.497 43.0363 101.144 43.7466C101.481 44.1171 101.454 44.691 101.083 45.028C100.733 45.3456 100.205 45.3391 99.8627 45.028V45.029ZM92.267 38.0535C91.9222 37.7397 91.8693 37.2085 92.1573 36.8315C92.4621 36.4341 93.0318 36.358 93.4295 36.6625C94.1915 37.2457 94.9497 37.8558 95.6829 38.476C96.062 38.8001 96.1131 39.3721 95.7888 39.7547C95.4645 40.1373 94.8921 40.1846 94.5093 39.8605C93.7984 39.2588 93.0634 38.6673 92.3255 38.1028C92.3051 38.087 92.2846 38.0703 92.2661 38.0526L92.267 38.0535Z" fill="url(#paint6_linear_4931_3472)"/>
<path opacity="0.35" d="M107.729 56.0653C107.657 55.9993 107.593 55.9204 107.544 55.8294C107.316 55.4125 107.081 54.9974 106.843 54.5861C106.591 54.1533 106.739 53.5981 107.172 53.3464C107.605 53.0948 108.16 53.2424 108.412 53.6751C108.659 54.1004 108.9 54.5276 109.136 54.9584C109.377 55.3976 109.216 55.9492 108.776 56.1897C108.428 56.381 108.008 56.3188 107.729 56.0653Z" fill="url(#paint7_linear_4931_3472)"/>
<path opacity="0.35" d="M116.005 100.663C115.756 100.436 115.642 100.079 115.745 99.7343C115.879 99.2775 116.009 98.8197 116.132 98.3601C116.262 97.8763 116.76 97.5893 117.244 97.7184C117.728 97.8484 118.016 98.3452 117.886 98.8299C117.759 99.3035 117.626 99.7761 117.486 100.249C117.344 100.729 116.839 101.004 116.358 100.862C116.222 100.822 116.103 100.753 116.005 100.664V100.663Z" fill="url(#paint8_linear_4931_3472)"/>
<path opacity="0.35" d="M21.8506 127.074C21.4808 126.738 21.4529 126.165 21.7884 125.795C22.1247 125.423 22.699 125.394 23.0707 125.731C23.7872 126.379 24.5306 127.018 25.2823 127.629C25.6707 127.944 25.7284 128.517 25.4115 128.905C25.0946 129.293 24.5231 129.351 24.1347 129.034C23.3597 128.403 22.5922 127.743 21.8525 127.074C21.8525 127.074 21.8515 127.073 21.8506 127.072V127.074ZM18.4217 123.701C18.4031 123.684 18.3855 123.666 18.3678 123.648C17.6867 122.918 17.0148 122.161 16.3718 121.397C16.0493 121.013 16.0986 120.441 16.4824 120.119C16.8661 119.797 17.4386 119.846 17.761 120.23C18.3836 120.97 19.035 121.703 19.6948 122.41C20.0367 122.776 20.0172 123.351 19.6502 123.692C19.3026 124.017 18.7665 124.015 18.4208 123.701H18.4217ZM27.9493 131.886C27.6194 131.586 27.5534 131.081 27.8127 130.703C28.0961 130.29 28.6611 130.185 29.0746 130.468C29.8719 131.015 30.6952 131.548 31.5213 132.055C31.9478 132.318 32.0825 132.876 31.8205 133.302C31.5584 133.729 30.999 133.863 30.5725 133.601C29.7204 133.079 28.8711 132.528 28.0487 131.964C28.0134 131.94 27.9808 131.914 27.9502 131.886H27.9493ZM13.5153 117.677C13.467 117.633 13.4233 117.584 13.3843 117.528C12.8091 116.715 12.2459 115.874 11.7107 115.029C11.4431 114.605 11.5694 114.045 11.9932 113.777C12.4169 113.51 12.9763 113.637 13.2458 114.059C13.7634 114.878 14.3089 115.693 14.8664 116.481C15.1554 116.891 15.0588 117.456 14.649 117.745C14.2949 117.995 13.8229 117.956 13.5153 117.676V117.677ZM34.638 135.843C34.3434 135.575 34.2505 135.135 34.4391 134.763C34.6658 134.316 35.2113 134.137 35.6592 134.363C36.5234 134.8 37.4099 135.22 38.2936 135.611C38.7527 135.814 38.9589 136.35 38.7554 136.807C38.5519 137.265 38.0158 137.472 37.5576 137.269C36.6461 136.865 35.7317 136.432 34.8396 135.981C34.7643 135.943 34.6974 135.897 34.638 135.843ZM41.7904 138.875C41.5302 138.639 41.4205 138.261 41.5432 137.907C41.7077 137.433 42.2243 137.183 42.6982 137.347C43.6117 137.664 44.5465 137.961 45.4757 138.229C45.958 138.368 46.2349 138.872 46.0955 139.353C45.9562 139.834 45.4525 140.111 44.9712 139.972C44.0113 139.694 43.0467 139.388 42.1035 139.061C41.9836 139.019 41.8786 138.955 41.7904 138.875ZM49.2884 140.915C49.0598 140.707 48.9437 140.389 49.0087 140.065C49.1072 139.574 49.5858 139.255 50.0774 139.354C51.0252 139.544 51.9898 139.711 52.9441 139.851C53.4403 139.925 53.7832 140.385 53.7098 140.881C53.6364 141.377 53.1755 141.72 52.6793 141.646C51.6933 141.501 50.6981 141.329 49.7205 141.133C49.5533 141.099 49.4064 141.022 49.2884 140.915V140.915ZM56.9872 141.921C56.7902 141.742 56.6741 141.479 56.6917 141.193C56.7233 140.693 57.1545 140.313 57.6544 140.344C58.6171 140.405 59.5956 140.441 60.5648 140.451C61.0666 140.457 61.4681 140.867 61.4625 141.368C61.4569 141.868 61.0462 142.27 60.5453 142.265C59.5454 142.254 58.5354 142.216 57.542 142.154C57.3273 142.141 57.1359 142.054 56.9882 141.92L56.9872 141.921ZM64.7539 141.882C64.5875 141.731 64.4769 141.518 64.4593 141.277C64.4231 140.777 64.7994 140.343 65.2993 140.306C66.263 140.237 67.2387 140.141 68.1995 140.021C68.6976 139.96 69.1501 140.313 69.2124 140.81C69.2737 141.306 68.9206 141.76 68.4235 141.822C67.432 141.945 66.4246 142.044 65.4304 142.115C65.172 142.134 64.9314 142.043 64.7539 141.881V141.882ZM72.4471 140.802C72.3105 140.678 72.2111 140.512 72.1702 140.317C72.067 139.827 72.382 139.346 72.8727 139.244C73.8187 139.046 74.773 138.821 75.7097 138.575C76.1938 138.447 76.6909 138.736 76.8183 139.221C76.9456 139.706 76.6566 140.201 76.1715 140.329C75.2051 140.583 74.2201 140.815 73.2435 141.019C72.947 141.082 72.6543 140.992 72.4462 140.802H72.4471ZM79.9294 138.705C79.8225 138.608 79.737 138.484 79.685 138.338C79.5177 137.866 79.7649 137.347 80.2379 137.18C81.1504 136.857 82.0666 136.506 82.9615 136.137C83.4252 135.946 83.9549 136.167 84.1472 136.629C84.3386 137.093 84.1175 137.623 83.6547 137.814C82.731 138.195 81.786 138.557 80.8447 138.89C80.5185 139.005 80.1691 138.924 79.9303 138.705H79.9294ZM87.065 135.628C86.987 135.558 86.9201 135.471 86.869 135.372C86.6394 134.926 86.816 134.379 87.2611 134.151C88.1207 133.71 88.9821 133.239 89.8212 132.752C90.2542 132.501 90.8108 132.648 91.0617 133.081C91.3136 133.514 91.1658 134.069 90.7328 134.321C89.8667 134.823 88.9784 135.309 88.0909 135.764C87.7443 135.942 87.3373 135.875 87.065 135.628ZM93.724 131.621C93.6748 131.577 93.6302 131.526 93.5902 131.469C93.3031 131.059 93.4034 130.493 93.8141 130.206C94.6087 129.652 95.3985 129.069 96.1633 128.474C96.5582 128.167 97.1288 128.237 97.4373 128.633C97.7449 129.029 97.6742 129.598 97.2784 129.906C96.4894 130.52 95.6736 131.122 94.854 131.694C94.4999 131.941 94.0307 131.901 93.724 131.622V131.621ZM99.7808 126.75C99.7613 126.732 99.7418 126.714 99.7242 126.693C99.384 126.326 99.4073 125.751 99.7753 125.412C100.486 124.756 101.189 124.073 101.865 123.381C102.215 123.023 102.781 123.013 103.148 123.366C103.507 123.716 103.514 124.29 103.163 124.649C102.465 125.363 101.74 126.069 101.007 126.745C100.658 127.066 100.125 127.063 99.7808 126.75ZM105.118 121.107C104.763 120.784 104.72 120.234 105.029 119.859C105.643 119.115 106.247 118.344 106.826 117.565C107.126 117.163 107.693 117.078 108.097 117.377C108.5 117.677 108.584 118.243 108.284 118.646C107.688 119.451 107.063 120.247 106.43 121.014C106.111 121.401 105.538 121.455 105.152 121.137C105.141 121.128 105.129 121.117 105.118 121.108V121.107ZM109.649 114.798C109.332 114.509 109.255 114.026 109.491 113.649C109.738 113.251 109.98 112.85 110.218 112.445C110.474 112.011 110.724 111.574 110.966 111.134C111.209 110.696 111.762 110.537 112.2 110.78C112.638 111.022 112.798 111.574 112.555 112.013C112.304 112.465 112.048 112.916 111.783 113.365C111.538 113.783 111.287 114.197 111.032 114.606C110.768 115.032 110.208 115.162 109.782 114.898C109.734 114.868 109.69 114.835 109.649 114.798ZM113.303 107.943C113.021 107.686 112.921 107.267 113.087 106.9C113.483 106.017 113.863 105.113 114.214 104.213C114.396 103.746 114.922 103.514 115.389 103.696C115.856 103.878 116.087 104.404 115.906 104.871C115.545 105.801 115.152 106.733 114.743 107.644C114.537 108.101 114 108.304 113.543 108.099C113.453 108.059 113.373 108.005 113.304 107.943H113.303Z" fill="url(#paint9_linear_4931_3472)"/>
<path d="M9.45208 111.016C9.37495 110.946 9.30897 110.861 9.25787 110.763C9.03113 110.328 8.80997 109.888 8.59439 109.448C8.37415 108.998 8.56093 108.455 9.01162 108.235C9.4623 108.015 10.0059 108.202 10.2252 108.652C10.4343 109.08 10.6489 109.505 10.8682 109.927C11.0996 110.371 10.9268 110.919 10.4817 111.15C10.1351 111.33 9.72528 111.265 9.45208 111.017V111.016Z" fill="white"/>
<path opacity="0.35" d="M11.2164 98.2149C11.288 98.5316 11.5528 98.7674 11.8752 98.8037L21.0822 99.8186C22.9723 103.707 25.4961 107.321 28.6193 110.492L26.4988 119.495C26.4244 119.811 26.5583 120.139 26.8333 120.312L36.227 126.24C36.5021 126.413 36.8561 126.393 37.1089 126.191L44.3329 120.407C48.5395 121.861 52.8903 122.585 57.2159 122.62L62.0907 130.49C62.2617 130.766 62.5888 130.903 62.9057 130.832L73.7425 128.386C74.0594 128.315 74.2954 128.05 74.3317 127.728L75.3473 118.527C79.2381 116.639 82.8556 114.117 86.0281 110.996L95.038 113.116C95.354 113.19 95.682 113.056 95.8558 112.781L101.788 103.395C101.962 103.121 101.941 102.766 101.739 102.513L95.9506 95.2946C97.4067 91.0909 98.1306 86.7434 98.165 82.4209L106.041 77.5496C106.317 77.3787 106.455 77.0519 106.383 76.7352L103.936 65.9062C103.864 65.5896 103.599 65.3537 103.277 65.3175L94.0698 64.3026C92.1797 60.4147 89.6558 56.7997 86.5327 53.6296L88.6541 44.6262C88.7285 44.3104 88.5947 43.9827 88.3196 43.809L78.9259 37.881C78.6517 37.7074 78.2968 37.7278 78.044 37.9302L70.8201 43.7143C66.6134 42.2592 62.2617 41.5359 57.937 41.5015L53.0622 33.6309C52.8912 33.3552 52.5641 33.2177 52.2472 33.2892L41.4104 35.7351C41.0935 35.8066 40.8575 36.0712 40.8212 36.3934L39.8056 45.5937C35.9148 47.4824 32.2973 50.0054 29.1248 53.1254L20.1149 51.0054C19.7989 50.9312 19.4709 51.0649 19.2971 51.3397L13.3648 60.7267C13.1911 61.0006 13.2115 61.3553 13.4141 61.6079L19.2023 68.8266C17.7471 73.0302 17.0223 77.3778 16.988 81.7003L9.11167 86.5716C8.83569 86.7424 8.69816 87.0693 8.76971 87.3859L11.2173 98.2149H11.2164Z" fill="url(#paint10_linear_4931_3472)"/>
<path d="M50.4005 89.9497C49.4536 89.0889 48.6628 88.0545 48.0663 86.8798C46.7774 84.3411 46.5553 81.4542 47.4409 78.7483C48.3255 76.0434 50.2119 73.8446 52.7524 72.5566C55.293 71.2687 58.182 71.0468 60.8898 71.9317C66.4793 73.7563 69.5383 79.7856 67.7114 85.3709C65.8845 90.9553 59.8509 94.0131 54.2625 92.1876C52.8082 91.7121 51.4989 90.9479 50.4005 89.9497ZM63.6674 75.3488C62.7502 74.515 61.6472 73.8576 60.3936 73.4481C58.0919 72.6959 55.634 72.8844 53.4735 73.9801C51.314 75.0749 49.7092 76.9451 48.9565 79.2451C48.2038 81.5461 48.3924 84.0013 49.488 86.1593C50.5836 88.3182 52.4551 89.9209 54.7568 90.6731C59.509 92.2256 64.6393 89.6247 66.193 84.876C67.3369 81.379 66.2274 77.6777 63.6655 75.3488H63.6674Z" fill="white"/>
<path d="M39.4636 102.08C39.38 102.004 39.2964 101.927 39.2137 101.85C39.2127 101.848 39.2099 101.847 39.2081 101.845C39.1681 101.807 39.1272 101.77 39.0873 101.731C39.0845 101.73 39.0845 101.729 39.0826 101.728C39.0798 101.725 39.0761 101.721 39.0733 101.718C38.9693 101.62 38.8661 101.521 38.7639 101.42C38.7528 101.409 38.7416 101.399 38.7295 101.387C38.5762 101.237 38.5697 100.992 38.7137 100.834C38.7174 100.831 38.7202 100.827 38.724 100.823C38.8782 100.666 39.1337 100.666 39.288 100.818C40.6205 102.124 42.1055 103.296 43.6991 104.303C54.6828 111.234 68.8742 109.047 77.3294 99.7582C78.3525 98.6347 79.2911 97.4071 80.1302 96.0792C87.9052 83.7757 84.217 67.4449 71.9008 59.6746C60.9171 52.7437 46.7257 54.9305 38.2705 64.219C37.2474 65.3426 36.3088 66.5702 35.4697 67.898C32.9134 71.9429 31.5037 76.5959 31.3941 81.353C31.3922 81.4524 31.3532 81.5434 31.2909 81.6112C31.2156 81.6938 31.1069 81.7449 30.9861 81.7421C30.7659 81.7365 30.5921 81.5545 30.5968 81.3344C30.7101 76.4334 32.1625 71.6402 34.796 67.4727C35.6602 66.1049 36.6276 64.8402 37.6813 63.6832C46.3921 54.1143 61.0119 51.8607 72.3282 59.0014C85.0124 67.0057 88.8158 83.8305 80.8057 96.5064C79.9416 97.8742 78.9742 99.1389 77.9204 100.296C69.2097 109.864 54.5899 112.118 43.2735 104.978C41.9187 104.123 40.641 103.15 39.4627 102.081L39.4636 102.08Z" fill="white"/>
<path d="M97.7306 168.749C96.9054 168.571 96.2605 167.869 96.1945 166.985C96.1155 165.927 96.0579 164.852 96.0217 163.792C95.9845 162.715 96.8292 161.812 97.9062 161.776C98.9832 161.741 99.8873 162.583 99.9236 163.659C99.958 164.668 100.014 165.69 100.088 166.696C100.168 167.771 99.3614 168.706 98.2863 168.786C98.0958 168.8 97.909 168.786 97.7306 168.748V168.749Z" fill="white"/>
<path d="M234.786 108.722C234.41 108.641 234.054 108.449 233.771 108.147C233.076 107.404 232.362 106.67 231.649 105.966C230.882 105.208 230.876 103.973 231.633 103.207C232.391 102.441 233.627 102.434 234.394 103.191C235.143 103.932 235.893 104.703 236.623 105.483C237.359 106.271 237.317 107.505 236.53 108.24C236.045 108.693 235.389 108.851 234.785 108.722H234.786Z" fill="white"/>
<path opacity="0.35" d="M257.537 172.174C256.617 171.976 255.95 171.137 256 170.167C256.051 169.155 256.083 168.132 256.095 167.126C256.107 166.049 256.99 165.185 258.069 165.197C259.149 165.21 260.01 166.093 259.999 167.171C259.987 168.227 259.954 169.303 259.9 170.367C259.845 171.443 258.928 172.27 257.851 172.216C257.744 172.21 257.639 172.196 257.538 172.175L257.537 172.174Z" fill="url(#paint11_linear_4931_3472)"/>
<path opacity="0.35" d="M161.054 245.576C161.048 245.575 161.042 245.574 161.038 245.573C159.415 245.21 157.784 244.794 156.186 244.333C155.788 244.218 155.389 244.1 154.992 243.979C153.961 243.664 153.381 242.573 153.696 241.544C154.011 240.513 155.103 239.932 156.133 240.248C156.51 240.363 156.888 240.476 157.268 240.584C158.79 241.023 160.345 241.421 161.889 241.765C162.942 242 163.603 243.043 163.368 244.095C163.134 245.141 162.1 245.802 161.054 245.577V245.576ZM170.835 247.131C169.88 246.925 169.209 246.034 169.304 245.039C169.407 243.966 170.36 243.18 171.433 243.283C173.398 243.47 175.396 243.584 177.37 243.619C178.447 243.637 179.306 244.527 179.287 245.604C179.268 246.681 178.378 247.539 177.3 247.52C175.225 247.483 173.125 247.364 171.062 247.166C170.984 247.159 170.909 247.146 170.835 247.131ZM145.872 240.556C145.742 240.529 145.612 240.487 145.485 240.43C143.587 239.583 141.699 238.653 139.878 237.666C138.93 237.152 138.579 235.968 139.093 235.02C139.607 234.074 140.789 233.722 141.739 234.236C143.473 235.175 145.268 236.061 147.076 236.866C148.06 237.306 148.502 238.459 148.063 239.443C147.68 240.3 146.754 240.746 145.872 240.556H145.872ZM186.821 247.03C186.02 246.858 185.384 246.19 185.291 245.332C185.175 244.261 185.95 243.299 187.021 243.182C188.984 242.97 190.962 242.678 192.902 242.314C193.962 242.116 194.981 242.813 195.18 243.872C195.379 244.931 194.681 245.951 193.621 246.149C191.583 246.531 189.504 246.838 187.442 247.061C187.229 247.084 187.02 247.072 186.821 247.03ZM132.003 232.599C131.748 232.545 131.5 232.438 131.275 232.276C129.591 231.068 127.932 229.777 126.343 228.439C125.518 227.744 125.413 226.514 126.107 225.69C126.802 224.866 128.033 224.761 128.858 225.455C130.371 226.729 131.951 227.958 133.553 229.108C134.428 229.737 134.629 230.955 133.999 231.831C133.532 232.481 132.739 232.758 132.003 232.6V232.599ZM202.451 243.713C201.791 243.571 201.222 243.09 201.001 242.401C200.672 241.375 201.237 240.276 202.264 239.947C204.143 239.346 206.023 238.662 207.855 237.916C208.853 237.51 209.993 237.99 210.399 238.987C210.806 239.984 210.327 241.123 209.328 241.53C207.405 242.312 205.43 243.03 203.457 243.663C203.12 243.77 202.775 243.782 202.452 243.713H202.451ZM217.106 237.333C216.577 237.22 216.098 236.89 215.812 236.381C215.284 235.441 215.619 234.252 216.559 233.725C218.284 232.757 219.992 231.713 221.634 230.62C222.531 230.023 223.744 230.266 224.341 231.162C224.938 232.058 224.696 233.27 223.798 233.867C222.073 235.015 220.281 236.112 218.47 237.128C218.038 237.37 217.554 237.431 217.105 237.334L217.106 237.333ZM230.194 228.159C229.794 228.073 229.416 227.861 229.128 227.527C228.423 226.711 228.514 225.479 229.33 224.775C230.826 223.485 232.29 222.12 233.681 220.718C234.442 219.954 235.678 219.95 236.442 220.708C237.208 221.467 237.212 222.702 236.452 223.467C234.99 224.939 233.452 226.372 231.881 227.728C231.399 228.144 230.771 228.283 230.193 228.159H230.194ZM241.182 216.547C240.907 216.488 240.641 216.369 240.404 216.186C239.55 215.529 239.39 214.304 240.048 213.45C241.254 211.885 242.414 210.253 243.493 208.601C244.083 207.698 245.292 207.445 246.195 208.034C247.098 208.623 247.352 209.832 246.762 210.733C245.627 212.47 244.409 214.185 243.141 215.83C242.666 216.447 241.896 216.701 241.182 216.548V216.547ZM249.602 202.963C249.452 202.931 249.302 202.88 249.157 202.81C248.188 202.339 247.784 201.171 248.256 200.203C249.118 198.431 249.924 196.6 250.65 194.761C251.045 193.759 252.18 193.265 253.182 193.663C254.184 194.058 254.677 195.191 254.281 196.193C253.518 198.124 252.672 200.047 251.766 201.908C251.365 202.733 250.46 203.147 249.602 202.963ZM255.117 187.969C255.091 187.963 255.064 187.957 255.038 187.95C253.994 187.681 253.367 186.617 253.635 185.574C253.901 184.546 254.149 183.498 254.373 182.457C254.566 181.56 254.743 180.661 254.903 179.764C255.091 178.703 256.105 177.997 257.166 178.185C258.24 178.37 258.936 179.387 258.746 180.447C258.578 181.391 258.392 182.333 258.189 183.277C257.954 184.37 257.694 185.47 257.415 186.549C257.152 187.566 256.135 188.188 255.116 187.97L255.117 187.969Z" fill="url(#paint12_linear_4931_3472)"/>
<path opacity="0.35" d="M119.991 221.971C119.61 221.889 119.25 221.694 118.967 221.386C118.247 220.605 117.533 219.8 116.846 218.993C116.148 218.173 116.247 216.942 117.068 216.244C117.889 215.546 119.121 215.644 119.819 216.465C120.473 217.233 121.152 217.999 121.837 218.743C122.568 219.535 122.518 220.77 121.724 221.5C121.239 221.946 120.588 222.1 119.99 221.971H119.991Z" fill="url(#paint13_linear_4931_3472)"/>
<path d="M123.663 209.257C123.892 209.665 124.355 209.882 124.815 209.797L137.945 207.405C142.159 211.994 147.136 215.945 152.756 219.036L153.543 232.34C153.571 232.807 153.891 233.205 154.342 233.331L169.758 237.644C170.209 237.771 170.689 237.597 170.956 237.212L178.542 226.251C184.95 226.526 191.256 225.732 197.242 223.996L207.22 232.854C207.57 233.164 208.078 233.219 208.486 232.989L222.439 225.147C222.847 224.917 223.064 224.455 222.98 223.995L220.586 210.874C225.178 206.663 229.132 201.69 232.225 196.075L245.54 195.288C246.006 195.261 246.405 194.94 246.531 194.49L250.848 179.085C250.974 178.634 250.8 178.154 250.416 177.888L239.446 170.307C239.721 163.904 238.927 157.602 237.191 151.62L246.055 141.649C246.365 141.3 246.42 140.792 246.19 140.385L238.342 126.442C238.112 126.035 237.65 125.817 237.19 125.902L224.059 128.294C219.845 123.705 214.868 119.754 209.249 116.663L208.462 103.358C208.434 102.892 208.114 102.493 207.663 102.367L192.247 98.0539C191.796 97.9277 191.316 98.1013 191.049 98.4857L183.462 109.448C177.054 109.173 170.748 109.967 164.761 111.701L154.783 102.844C154.434 102.532 153.925 102.479 153.518 102.708L139.565 110.551C139.157 110.78 138.94 111.242 139.024 111.702L141.418 124.823C136.826 129.034 132.872 134.007 129.779 139.622L116.464 140.409C115.997 140.437 115.599 140.757 115.473 141.207L111.157 156.612C111.031 157.063 111.204 157.543 111.589 157.809L122.559 165.39C122.284 171.794 123.078 178.095 124.814 184.077L115.95 194.048C115.64 194.397 115.585 194.905 115.814 195.313L123.663 209.255V209.257Z" fill="url(#paint14_linear_4931_3472)"/>
<path d="M178.095 184.499C169.973 183.089 163.876 175.889 164.095 167.413C164.211 162.9 166.079 158.702 169.354 155.594C172.63 152.485 176.921 150.836 181.437 150.953C190.764 151.192 198.15 158.966 197.91 168.282C197.794 172.795 195.925 176.993 192.65 180.102C189.375 183.211 185.083 184.859 180.567 184.743C179.726 184.722 178.9 184.638 178.095 184.499ZM182.999 156.512C182.442 156.415 181.875 156.359 181.299 156.344C174.95 156.18 169.652 161.209 169.489 167.553C169.41 170.626 170.533 173.546 172.652 175.774C174.771 178.004 177.633 179.274 180.707 179.353C183.782 179.432 186.704 178.309 188.934 176.193C191.165 174.076 192.437 171.218 192.516 168.145C192.595 165.071 191.472 162.152 189.353 159.923C187.631 158.112 185.419 156.933 182.999 156.513V156.512Z" fill="white"/>
<path d="M174.546 206.582C173.238 206.355 171.933 206.061 170.628 205.696C168.236 205.026 165.911 204.135 163.704 203.044C163.452 202.919 163.202 202.792 162.954 202.662C162.906 202.637 162.857 202.612 162.809 202.586C162.456 202.4 162.277 202.011 162.342 201.638C162.357 201.547 162.388 201.458 162.433 201.372C162.664 200.934 163.209 200.765 163.647 200.996C166.005 202.239 168.516 203.238 171.113 203.964C171.326 204.023 171.54 204.082 171.755 204.138C186.271 207.934 201.118 202.69 210.22 191.852C213.507 187.939 216.044 183.296 217.543 178.084C217.568 177.997 217.594 177.91 217.618 177.823C217.967 176.577 218.25 175.327 218.466 174.078C221.734 155.267 210.245 136.607 191.459 131.351C171.424 125.747 150.562 137.474 144.953 157.492C144.607 158.726 144.324 159.973 144.107 161.227C143.163 166.664 143.419 172.248 144.878 177.574C144.915 177.706 144.919 177.839 144.897 177.965C144.839 178.297 144.596 178.582 144.248 178.678C143.768 178.808 143.274 178.528 143.143 178.048C141.615 172.467 141.346 166.616 142.335 160.92C142.563 159.606 142.858 158.3 143.221 157.007C149.098 136.032 170.959 123.748 191.943 129.62C211.625 135.127 223.662 154.676 220.239 174.384C220.011 175.693 219.716 177.002 219.351 178.307C213.839 197.976 194.27 210.006 174.547 206.582L174.546 206.582Z" fill="white"/>
<path d="M98.4001 149.917C88.2165 151.699 81.433 145.142 76.3955 141.18C69.7449 135.951 64.6973 138.651 64.6973 138.651L71.9435 152.344C82.5666 162.346 93.2186 159.879 99.898 156.447C99.951 153.775 99.2206 151.554 98.4001 149.916V149.917Z" fill="url(#paint15_linear_4931_3472)"/>
<path d="M112.635 143.327L109.284 145.282C105.27 147.924 101.661 149.347 98.3994 149.918C99.2199 151.554 99.9503 153.776 99.8974 156.449C104.15 154.264 106.792 151.688 106.792 151.688C114.376 146.798 112.635 143.328 112.635 143.328V143.327Z" fill="url(#paint16_linear_4931_3472)"/>
<path d="M74.4838 238.829L73.7302 242.732C72.4367 249.43 75.0516 255.566 79.5714 256.438L84.9443 257.474C89.4642 258.346 94.1764 253.623 95.4699 246.925L96.2235 243.021C96.2737 242.763 96.3183 242.503 96.3564 242.243L113.705 125.562L102 123.304L74.6502 238.057C74.5888 238.313 74.534 238.571 74.4838 238.829ZM79.9831 239.572C80.9569 234.528 84.1777 230.91 87.1754 231.487C90.1741 232.066 91.8152 236.622 90.8413 241.666C89.8675 246.709 86.6467 250.327 83.648 249.749C80.6494 249.17 79.0083 244.614 79.9822 239.571L79.9831 239.572Z" fill="#151D2B"/>
<path d="M103.734 82.6209L99.3604 105.27C99.0491 106.883 99.5044 108.548 100.593 109.779L106.172 116.087C107.765 117.887 110.371 118.389 112.519 117.31L120.047 113.53C121.515 112.793 122.559 111.416 122.87 109.804L127.244 87.1551C127.904 83.7389 132.311 82.6376 134.438 85.3926C139.526 91.9827 141.862 100.797 140.122 109.808C136.976 126.095 122.103 134.848 106.425 131.825C90.7472 128.802 80.2012 115.146 83.3467 98.8588C85.0872 89.847 90.5372 82.5354 97.7138 78.3104C100.713 76.5443 104.394 79.2056 103.734 82.6218V82.6209Z" fill="#151D2B"/>
<path d="M105.871 83.032L101.497 105.681C101.186 107.294 101.641 108.959 102.729 110.19L108.309 116.498C109.901 118.298 112.508 118.801 114.656 117.722L122.184 113.941C123.652 113.204 124.696 111.827 125.007 110.215L129.381 87.5662C130.041 84.15 134.448 83.0487 136.575 85.8038C141.663 92.3939 143.998 101.208 142.258 110.219C139.113 126.506 124.239 135.259 108.561 132.236C92.884 129.213 82.338 115.557 85.4834 99.2699C87.2239 90.2581 92.674 82.9466 99.8505 78.7216C102.85 76.9554 106.531 79.6167 105.871 83.0329V83.032Z" fill="#285E96"/>
<path d="M76.1879 239.157L75.4343 243.061C74.1408 249.759 76.7557 255.895 81.2746 256.767L86.6475 257.803C91.1673 258.675 95.8795 253.951 97.1731 247.254L97.9267 243.35C97.9769 243.092 98.0215 242.832 98.0596 242.572L115.409 125.89L103.703 123.633L76.3533 238.386C76.2929 238.642 76.2372 238.899 76.187 239.157H76.1879ZM81.6872 239.9C82.661 234.857 85.8818 231.238 88.8795 231.816C91.8782 232.395 93.5193 236.951 92.5454 241.994C91.5716 247.037 88.3508 250.656 85.3521 250.077C82.3535 249.499 80.7124 244.942 81.6863 239.899L81.6872 239.9Z" fill="#285E96"/>
<path d="M113.073 148.378C113.197 147.646 112.984 146.903 112.498 146.342C111.556 145.253 109.93 143.763 108.751 144.768C106.995 146.264 108.919 151.382 108.919 151.382L110.867 154.354L110.895 156.251C111.948 155.018 112.579 151.985 113.074 148.378H113.073Z" fill="url(#paint17_linear_4931_3472)"/>
<path d="M46.2469 172.901C44.7842 174.521 42.6135 175.938 41.084 176.825C43.4471 179.633 46.6251 182.43 50.8141 185.147L52.0481 187.78L55.7549 183.166C55.7549 183.166 48.885 179.91 46.2469 172.901Z" fill="url(#paint18_linear_4931_3472)"/>
<path d="M68.173 258.673C68.173 258.592 68.1656 258.509 68.1433 258.427C66.8228 253.583 60.6684 250.667 60.6684 250.667L58.2561 250.901C56.9477 255.217 57.1763 257.844 57.4216 259.013C57.4281 259.045 57.4393 259.077 57.4486 259.108C59.4446 259.248 63.55 259.287 68.1739 258.673H68.173Z" fill="url(#paint19_linear_4931_3472)"/>
<path d="M57.4473 259.108C57.5625 259.497 57.8571 259.796 58.2288 259.867C61.075 260.41 65.5726 259.845 67.4599 259.562C67.8762 259.5 68.1745 259.108 68.1726 258.672C63.5487 259.287 59.4442 259.248 57.4473 259.108Z" fill="url(#paint20_linear_4931_3472)"/>
<path d="M57.2158 247.324L58.3318 252.228C58.4136 252.587 58.6961 252.852 59.0325 252.877C59.4442 252.908 60.0305 252.92 60.6178 252.822C61.1447 252.735 61.5015 252.192 61.3974 251.618L60.6039 247.26L57.2158 247.324Z" fill="url(#paint21_linear_4931_3472)"/>
<path d="M78.6406 258.659C75.9709 258.635 74.5845 258.347 73.8652 258.068C73.869 258.334 73.8755 258.603 73.8894 258.883C73.9043 259.181 74.1301 259.416 74.4023 259.409L89.0519 259.038C89.5193 259.026 89.7823 258.479 89.5713 258.054C87.6534 258.249 82.7674 258.696 78.6397 258.659H78.6406Z" fill="url(#paint22_linear_4931_3472)"/>
<path d="M89.5712 258.054C89.5526 258.017 89.5369 257.98 89.5108 257.945C88.1829 256.163 84.8191 252.627 78.2781 251.189L75.1521 251.149C75.1521 251.149 73.8066 253.592 73.8651 258.067C74.5844 258.345 75.9699 258.633 78.6405 258.658C82.7673 258.695 87.6533 258.248 89.5722 258.053L89.5712 258.054Z" fill="url(#paint23_linear_4931_3472)"/>
<path d="M74.4844 246.43C74.5234 246.662 75.0187 250.191 75.2101 251.559C75.2556 251.884 75.4963 252.131 75.7946 252.161C76.328 252.215 77.1894 252.256 77.9402 252.088C78.3454 251.997 78.6316 251.601 78.6232 251.148L78.5182 245.596L74.4844 246.43Z" fill="url(#paint24_linear_4931_3472)"/>
<path d="M70.7578 181.937C70.7578 181.937 78.8329 210.409 79.3775 246.42C79.3877 247.077 78.937 247.652 78.2967 247.799C77.3536 248.016 75.9653 248.279 74.8112 248.269C74.1951 248.263 73.6719 247.817 73.5576 247.212C72.384 241.041 65.6618 206.277 62.1009 200.68C62.1009 200.68 60.4153 231.787 61.4458 247.889C61.4718 248.289 61.1847 248.642 60.7861 248.696C60.182 248.778 59.2156 248.848 57.9816 248.742C57.5132 248.701 57.1295 248.354 57.0542 247.891C56.203 242.665 51.2817 211.558 51.0411 189.087C51.0271 187.819 54.2665 182.248 54.2665 182.248L70.7578 181.937Z" fill="url(#paint25_linear_4931_3472)"/>
<path d="M80.5827 147.107C79.331 145.598 78.2289 143.977 77.3006 142.302C76.0043 139.963 77.2291 143.833 76.8369 141.172C67.3363 134.59 53.288 138.277 47.8417 139.068C46.0557 139.327 44.4351 140.24 43.2819 141.626C38.7063 147.124 28.7206 162.129 41.0851 176.824C42.6147 175.938 44.7863 174.521 46.248 172.901C44.8402 169.161 44.6395 164.351 47.3297 158.398C47.4347 158.864 47.561 159.324 47.7134 159.778C51.8058 171.928 52.2036 182.097 52.2398 184.441C52.2444 184.76 52.4414 185.043 52.7397 185.155C57.8599 187.094 67.6188 185.699 70.8935 185.148C71.4938 185.047 71.8887 184.479 71.7939 183.878C69.9614 172.241 77.8702 152.891 79.9638 148.043C80.1144 147.694 80.3262 147.379 80.5836 147.108L80.5827 147.107Z" fill="url(#paint26_linear_4931_3472)"/>
<path d="M56.4382 129.078L55.6475 139.096C55.6475 139.096 61.3084 140.684 65.3479 137.72L62.2981 128.687L56.4373 129.078H56.4382Z" fill="url(#paint27_linear_4931_3472)"/>
<path d="M62.7552 117.558C62.8927 117.684 68.6819 128.532 68.6819 128.532L62.4123 131.703L55.3965 122.235C55.3965 122.235 60.446 115.467 62.7542 117.558H62.7552Z" fill="url(#paint28_linear_4931_3472)"/>
<path d="M58.2008 122.448C58.094 122.743 58.1274 123.068 58.2937 123.332L61.5489 128.529C61.5981 128.608 61.6567 128.679 61.7264 128.741C62.1083 129.084 63.413 130.075 64.3803 128.673C65.2045 127.478 65.9795 126.391 66.8224 125.933C67.3149 125.666 67.93 125.86 68.1921 126.356C68.731 127.375 69.7783 129.455 70.4483 131.434C70.6165 131.93 70.3684 132.47 69.887 132.676C68.6158 133.22 66.1013 134.205 63.8599 134.558C63.4919 134.615 63.123 134.467 62.8982 134.17C61.9066 132.866 59.1124 129.218 58.1646 128.31C57.2846 127.466 55.6956 127.821 54.9819 128.041C54.7106 128.125 54.4197 128.092 54.1735 127.951C53.4366 127.526 52.1431 126.458 53.2721 124.586C53.5527 124.121 53.3938 123.51 52.9339 123.221C52.1096 122.701 51.2082 121.714 52.0185 120.072C52.8391 118.41 54.3575 118.233 55.3954 118.34C55.8545 118.388 56.3154 118.139 56.4836 117.709C56.5579 117.517 56.7094 117.353 56.9965 117.289C57.5373 117.168 57.8839 116.666 57.7678 116.125C57.5671 115.196 57.6823 113.983 59.1551 113.137C61.8565 111.586 64.2939 113.985 64.9416 116.036C65.5883 118.088 62.5636 119.604 60.6484 119.883C59.2416 120.089 58.4972 121.641 58.2017 122.451L58.2008 122.448Z" fill="url(#paint29_linear_4931_3472)"/>
<path d="M59.3869 130.216C59.3869 130.216 58.1054 126.69 56.5545 126.85C55.0027 127.009 53.8095 128.579 55.7684 130.281C58.2049 132.4 59.3869 130.216 59.3869 130.216Z" fill="url(#paint30_linear_4931_3472)"/>
<path d="M46.7991 157.494C44.6451 151.931 45.2603 145.154 45.2668 145.086L45.8327 145.14C45.8262 145.207 45.225 151.854 47.3297 157.289L46.7991 157.494V157.494Z" fill="url(#paint31_linear_4931_3472)"/>
<path d="M61.8106 199.955C61.6842 199.958 61.5672 199.875 61.5319 199.748C60.8619 197.352 56.1329 194.793 56.0846 194.768C55.9462 194.694 55.8941 194.522 55.9685 194.384C56.0428 194.245 56.2138 194.193 56.3532 194.268C56.5567 194.376 61.3432 196.966 62.0792 199.596C62.121 199.747 62.0327 199.903 61.8822 199.946C61.858 199.952 61.8339 199.956 61.8106 199.956V199.955Z" fill="url(#paint32_linear_4931_3472)"/>
<path d="M66.0148 114.266L51.5223 125.544C51.3132 125.707 51.0056 125.583 50.9675 125.321L50.817 124.288C50.817 124.288 44.7853 118.228 50.9824 112.749C57.1795 107.271 64.4908 113.477 64.4908 113.477L65.8931 113.755C66.1365 113.803 66.2099 114.114 66.0148 114.267V114.266Z" fill="url(#paint33_linear_4931_3472)"/>
</g>
<defs>
<linearGradient id="paint0_linear_4931_3472" x1="29.38" y1="300.374" x2="242.23" y2="-59.7938" gradientUnits="userSpaceOnUse">
<stop stop-color="#E6F2F2"/>
<stop offset="1" stop-color="white"/>
</linearGradient>
<linearGradient id="paint1_linear_4931_3472" x1="71.6174" y1="94.3166" x2="198.406" y2="81.8152" gradientUnits="userSpaceOnUse">
<stop stop-color="#FE89DD"/>
<stop offset="1" stop-color="#956BFE"/>
</linearGradient>
<linearGradient id="paint2_linear_4931_3472" x1="117.713" y1="66.6501" x2="120.706" y2="70.8221" gradientUnits="userSpaceOnUse">
<stop stop-color="#FE89DD"/>
<stop offset="0.11" stop-color="#E180E6"/>
<stop offset="0.24" stop-color="#C578EE"/>
<stop offset="0.39" stop-color="#B072F5"/>
<stop offset="0.54" stop-color="#A06EFA"/>
<stop offset="0.73" stop-color="#976BFD"/>
<stop offset="1" stop-color="#956BFE"/>
</linearGradient>
<linearGradient id="paint3_linear_4931_3472" x1="151.391" y1="29.7277" x2="195.028" y2="80.0891" gradientUnits="userSpaceOnUse">
<stop stop-color="#FE89DD"/>
<stop offset="0.11" stop-color="#E180E6"/>
<stop offset="0.24" stop-color="#C578EE"/>
<stop offset="0.39" stop-color="#B072F5"/>
<stop offset="0.54" stop-color="#A06EFA"/>
<stop offset="0.73" stop-color="#976BFD"/>
<stop offset="1" stop-color="#956BFE"/>
</linearGradient>
<linearGradient id="paint4_linear_4931_3472" x1="138.103" y1="80.2463" x2="139.773" y2="84.0869" gradientUnits="userSpaceOnUse">
<stop stop-color="#FE89DD"/>
<stop offset="0.11" stop-color="#E180E6"/>
<stop offset="0.24" stop-color="#C578EE"/>
<stop offset="0.39" stop-color="#B072F5"/>
<stop offset="0.54" stop-color="#A06EFA"/>
<stop offset="0.73" stop-color="#976BFD"/>
<stop offset="1" stop-color="#956BFE"/>
</linearGradient>
<linearGradient id="paint5_linear_4931_3472" x1="0.317556" y1="70.5584" x2="3.03667" y2="73.2243" gradientUnits="userSpaceOnUse">
<stop stop-color="#FE89DD"/>
<stop offset="0.11" stop-color="#E180E6"/>
<stop offset="0.24" stop-color="#C578EE"/>
<stop offset="0.39" stop-color="#B072F5"/>
<stop offset="0.54" stop-color="#A06EFA"/>
<stop offset="0.73" stop-color="#976BFD"/>
<stop offset="1" stop-color="#956BFE"/>
</linearGradient>
<linearGradient id="paint6_linear_4931_3472" x1="17.2915" y1="23.2899" x2="35.8201" y2="91.1584" gradientUnits="userSpaceOnUse">
<stop stop-color="#FE89DD"/>
<stop offset="0.11" stop-color="#E180E6"/>
<stop offset="0.24" stop-color="#C578EE"/>
<stop offset="0.39" stop-color="#B072F5"/>
<stop offset="0.54" stop-color="#A06EFA"/>
<stop offset="0.73" stop-color="#976BFD"/>
<stop offset="1" stop-color="#956BFE"/>
</linearGradient>
<linearGradient id="paint7_linear_4931_3472" x1="107.104" y1="53.1344" x2="109.626" y2="56.283" gradientUnits="userSpaceOnUse">
<stop stop-color="#FE89DD"/>
<stop offset="0.11" stop-color="#E180E6"/>
<stop offset="0.24" stop-color="#C578EE"/>
<stop offset="0.39" stop-color="#B072F5"/>
<stop offset="0.54" stop-color="#A06EFA"/>
<stop offset="0.73" stop-color="#976BFD"/>
<stop offset="1" stop-color="#956BFE"/>
</linearGradient>
<linearGradient id="paint8_linear_4931_3472" x1="116.043" y1="97.5944" x2="118.737" y2="100.412" gradientUnits="userSpaceOnUse">
<stop stop-color="#FE89DD"/>
<stop offset="0.11" stop-color="#E180E6"/>
<stop offset="0.24" stop-color="#C578EE"/>
<stop offset="0.39" stop-color="#B072F5"/>
<stop offset="0.54" stop-color="#A06EFA"/>
<stop offset="0.73" stop-color="#976BFD"/>
<stop offset="1" stop-color="#956BFE"/>
</linearGradient>
<linearGradient id="paint9_linear_4931_3472" x1="27.4387" y1="102.514" x2="42.346" y2="163.753" gradientUnits="userSpaceOnUse">
<stop stop-color="#FE89DD"/>
<stop offset="0.11" stop-color="#E180E6"/>
<stop offset="0.24" stop-color="#C578EE"/>
<stop offset="0.39" stop-color="#B072F5"/>
<stop offset="0.54" stop-color="#A06EFA"/>
<stop offset="0.73" stop-color="#976BFD"/>
<stop offset="1" stop-color="#956BFE"/>
</linearGradient>
<linearGradient id="paint10_linear_4931_3472" x1="23.5939" y1="30.4407" x2="98.8066" y2="144.855" gradientUnits="userSpaceOnUse">
<stop stop-color="#FE89DD"/>
<stop offset="0.11" stop-color="#E180E6"/>
<stop offset="0.24" stop-color="#C578EE"/>
<stop offset="0.39" stop-color="#B072F5"/>
<stop offset="0.54" stop-color="#A06EFA"/>
<stop offset="0.73" stop-color="#976BFD"/>
<stop offset="1" stop-color="#956BFE"/>
</linearGradient>
<linearGradient id="paint11_linear_4931_3472" x1="256.605" y1="164.994" x2="262.44" y2="170.05" gradientUnits="userSpaceOnUse">
<stop stop-color="#FE89DD"/>
<stop offset="0.11" stop-color="#E180E6"/>
<stop offset="0.24" stop-color="#C578EE"/>
<stop offset="0.39" stop-color="#B072F5"/>
<stop offset="0.54" stop-color="#A06EFA"/>
<stop offset="0.73" stop-color="#976BFD"/>
<stop offset="1" stop-color="#956BFE"/>
</linearGradient>
<linearGradient id="paint12_linear_4931_3472" x1="145.884" y1="176.143" x2="181.611" y2="280.376" gradientUnits="userSpaceOnUse">
<stop stop-color="#FE89DD"/>
<stop offset="0.11" stop-color="#E180E6"/>
<stop offset="0.24" stop-color="#C578EE"/>
<stop offset="0.39" stop-color="#B072F5"/>
<stop offset="0.54" stop-color="#A06EFA"/>
<stop offset="0.73" stop-color="#976BFD"/>
<stop offset="1" stop-color="#956BFE"/>
</linearGradient>
<linearGradient id="paint13_linear_4931_3472" x1="117.289" y1="215.597" x2="122.177" y2="222.713" gradientUnits="userSpaceOnUse">
<stop stop-color="#FE89DD"/>
<stop offset="0.11" stop-color="#E180E6"/>
<stop offset="0.24" stop-color="#C578EE"/>
<stop offset="0.39" stop-color="#B072F5"/>
<stop offset="0.54" stop-color="#A06EFA"/>
<stop offset="0.73" stop-color="#976BFD"/>
<stop offset="1" stop-color="#956BFE"/>
</linearGradient>
<linearGradient id="paint14_linear_4931_3472" x1="4.19048" y1="279.866" x2="299.246" y2="250.773" gradientUnits="userSpaceOnUse">
<stop stop-color="#FE89DD"/>
<stop offset="1" stop-color="#956BFE"/>
</linearGradient>
<linearGradient id="paint15_linear_4931_3472" x1="65.9998" y1="137.546" x2="86.5952" y2="170.734" gradientUnits="userSpaceOnUse">
<stop stop-color="#D932C7"/>
<stop offset="1" stop-color="#21005D"/>
</linearGradient>
<linearGradient id="paint16_linear_4931_3472" x1="123.017" y1="124.729" x2="76.3327" y2="186.882" gradientUnits="userSpaceOnUse">
<stop stop-color="#FEBBBA"/>
<stop offset="1" stop-color="#FF928E"/>
</linearGradient>
<linearGradient id="paint17_linear_4931_3472" x1="107.859" y1="63.5649" x2="112.802" y2="63.5649" gradientUnits="userSpaceOnUse">
<stop stop-color="#F9D0C2"/>
<stop offset="1" stop-color="#FF9992"/>
</linearGradient>
<linearGradient id="paint18_linear_4931_3472" x1="40.6439" y1="71.0729" x2="54.8747" y2="71.0729" gradientUnits="userSpaceOnUse">
<stop stop-color="#F9D0C2"/>
<stop offset="1" stop-color="#FF9992"/>
</linearGradient>
<linearGradient id="paint19_linear_4931_3472" x1="61.7894" y1="225.687" x2="62.9085" y2="265.781" gradientUnits="userSpaceOnUse">
<stop stop-color="#09005D"/>
<stop offset="1" stop-color="#1A0F91"/>
</linearGradient>
<linearGradient id="paint20_linear_4931_3472" x1="62.7681" y1="242.803" x2="62.6837" y2="197.091" gradientUnits="userSpaceOnUse">
<stop stop-color="#09005D"/>
<stop offset="1" stop-color="#1A0F91"/>
</linearGradient>
<linearGradient id="paint21_linear_4931_3472" x1="57.0898" y1="208.667" x2="61.1635" y2="208.667" gradientUnits="userSpaceOnUse">
<stop stop-color="#F9D0C2"/>
<stop offset="1" stop-color="#FF9992"/>
</linearGradient>
<linearGradient id="paint22_linear_4931_3472" x1="81.7144" y1="242.756" x2="81.63" y2="197.011" gradientUnits="userSpaceOnUse">
<stop stop-color="#09005D"/>
<stop offset="1" stop-color="#1A0F91"/>
</linearGradient>
<linearGradient id="paint23_linear_4931_3472" x1="80.7854" y1="225.157" x2="81.9054" y2="265.252" gradientUnits="userSpaceOnUse">
<stop stop-color="#09005D"/>
<stop offset="1" stop-color="#1A0F91"/>
</linearGradient>
<linearGradient id="paint24_linear_4931_3472" x1="74.3602" y1="200.344" x2="78.3751" y2="200.344" gradientUnits="userSpaceOnUse">
<stop stop-color="#F9D0C2"/>
<stop offset="1" stop-color="#FF9992"/>
</linearGradient>
<linearGradient id="paint25_linear_4931_3472" x1="100.177" y1="160.606" x2="35.5554" y2="265.234" gradientUnits="userSpaceOnUse">
<stop stop-color="#09005D"/>
<stop offset="1" stop-color="#1A0F91"/>
</linearGradient>
<linearGradient id="paint26_linear_4931_3472" x1="36.807" y1="136.398" x2="88.809" y2="184.044" gradientUnits="userSpaceOnUse">
<stop stop-color="#D932C7"/>
<stop offset="1" stop-color="#21005D"/>
</linearGradient>
<linearGradient id="paint27_linear_4931_3472" x1="62.3937" y1="126.294" x2="55.0962" y2="160.799" gradientUnits="userSpaceOnUse">
<stop stop-color="#FEBBBA"/>
<stop offset="1" stop-color="#FF928E"/>
</linearGradient>
<linearGradient id="paint28_linear_4931_3472" x1="60.9439" y1="119.661" x2="65.2942" y2="142.646" gradientUnits="userSpaceOnUse">
<stop stop-color="#FEBBBA"/>
<stop offset="1" stop-color="#FF928E"/>
</linearGradient>
<linearGradient id="paint29_linear_4931_3472" x1="57.0266" y1="130.652" x2="68.342" y2="118.16" gradientUnits="userSpaceOnUse">
<stop stop-color="#09005D"/>
<stop offset="1" stop-color="#1A0F91"/>
</linearGradient>
<linearGradient id="paint30_linear_4931_3472" x1="57.9233" y1="143.396" x2="56.9221" y2="127.217" gradientUnits="userSpaceOnUse">
<stop stop-color="#FEBBBA"/>
<stop offset="1" stop-color="#FF928E"/>
</linearGradient>
<linearGradient id="paint31_linear_4931_3472" x1="45.2602" y1="144.85" x2="49.6547" y2="145.599" gradientUnits="userSpaceOnUse">
<stop stop-color="#D932C7"/>
<stop offset="1" stop-color="#21005D"/>
</linearGradient>
<linearGradient id="paint32_linear_4931_3472" x1="63.3291" y1="189.055" x2="57.9342" y2="199.101" gradientUnits="userSpaceOnUse">
<stop stop-color="#4F52FF"/>
<stop offset="1" stop-color="#4042E2"/>
</linearGradient>
<linearGradient id="paint33_linear_4931_3472" x1="67.4486" y1="52.6345" x2="57.1959" y2="115.754" gradientUnits="userSpaceOnUse">
<stop stop-color="#FF928E"/>
<stop offset="1" stop-color="#FE7062"/>
</linearGradient>
<clipPath id="clip0_4931_3472">
<rect width="260" height="260" fill="white" transform="translate(0 0.0942383)"/>
</clipPath>
</defs>
</svg>
